<?xml version="1.0" encoding="utf-8"?>
<!-- Generator: Adobe Illustrator 26.0.3, SVG Export Plug-In . SVG Version: 6.00 Build 0)  -->
<svg version="1.1" id="Слой_1" xmlns="http://www.w3.org/2000/svg" xmlns:xlink="http://www.w3.org/1999/xlink" x="0px" y="0px"
	 viewBox="0 0 1920 600.2" style="enable-background:new 0 0 1920 600.2;" xml:space="preserve">
<style type="text/css">
	.st0{fill:#080000;}
	.st1{opacity:0.58;fill:#DC5B24;}
	.st2{opacity:0.5524;fill:#D65923;}
	.st3{opacity:0.5248;fill:#D05723;}
	.st4{opacity:0.4971;fill:#CB5422;}
	.st5{opacity:0.4695;fill:#C55221;}
	.st6{opacity:0.4419;fill:#BF5020;}
	.st7{opacity:0.4143;fill:#B94E20;}
	.st8{opacity:0.3867;fill:#B44B1F;}
	.st9{opacity:0.359;fill:#AE491E;}
	.st10{opacity:0.3314;fill:#A8471E;}
	.st11{opacity:0.3038;fill:#A2451D;}
	.st12{opacity:0.2762;fill:#9D421C;}
	.st13{opacity:0.2486;fill:#97401B;}
	.st14{opacity:0.221;fill:#913E1B;}
	.st15{opacity:0.1933;fill:#8B3C1A;}
	.st16{opacity:0.1657;fill:#863919;}
	.st17{opacity:0.1381;fill:#803719;}
	.st18{opacity:0.1105;fill:#7A3518;}
	.st19{opacity:8.285715e-02;fill:#743317;}
	.st20{opacity:5.523809e-02;fill:#6F3016;}
	.st21{opacity:2.761905e-02;fill:#692E16;}
	.st22{opacity:0;fill:#632C15;}
	.st23{opacity:0.64;fill:none;stroke:#DC5B24;stroke-miterlimit:10;enable-background:new    ;}
	.st24{fill:none;stroke:#DC5B24;stroke-width:3;stroke-miterlimit:10;}
	.st25{fill:#DC5B24;}
	.st26{opacity:0.64;fill:#DC5B24;enable-background:new    ;}
</style>
<rect class="st0" width="1920" height="600.2"/>
<g>
	<rect x="-130" y="596.7" class="st1" width="2181.4" height="3.7"/>
	<rect x="-129.1" y="583.6" class="st2" width="2181.4" height="3.7"/>
	<rect x="-128.2" y="570.4" class="st3" width="2181.4" height="3.7"/>
	<rect x="-127.3" y="557.2" class="st4" width="2181.4" height="3.7"/>
	<rect x="-126.4" y="544" class="st5" width="2181.4" height="3.7"/>
	<rect x="-125.4" y="530.9" class="st6" width="2181.4" height="3.7"/>
	<rect x="-124.5" y="517.7" class="st7" width="2181.4" height="3.7"/>
	<rect x="-123.6" y="504.5" class="st8" width="2181.4" height="3.7"/>
	<rect x="-122.7" y="491.3" class="st9" width="2181.4" height="3.7"/>
	<rect x="-121.8" y="478.2" class="st10" width="2181.4" height="3.7"/>
	<rect x="-120.9" y="465" class="st11" width="2181.4" height="3.7"/>
	<rect x="-119.9" y="451.8" class="st12" width="2181.4" height="3.7"/>
	<rect x="-119" y="438.6" class="st13" width="2181.4" height="3.7"/>
	<rect x="-118.1" y="425.5" class="st14" width="2181.4" height="3.7"/>
	<rect x="-117.2" y="412.3" class="st15" width="2181.4" height="3.7"/>
	<rect x="-116.3" y="399.1" class="st16" width="2181.4" height="3.7"/>
	<rect x="-115.4" y="385.9" class="st17" width="2181.4" height="3.7"/>
	<rect x="-114.4" y="372.8" class="st18" width="2181.4" height="3.7"/>
	<rect x="-113.5" y="359.6" class="st19" width="2181.4" height="3.7"/>
	<rect x="-112.6" y="346.4" class="st20" width="2181.4" height="3.7"/>
	<rect x="-111.7" y="333.2" class="st21" width="2181.4" height="3.7"/>
	<rect x="-110.8" y="320.1" class="st22" width="2181.4" height="3.7"/>
</g>
<rect x="1263.1" y="-249.7" class="st23" width="1088" height="484.8"/>
<rect x="1377.4" y="128.4" class="st23" width="1088" height="484.8"/>
<rect x="1772.6" y="523.6" class="st23" width="468.4" height="228.9"/>
<rect x="957" y="128.4" class="st24" width="1088" height="484.8"/>
<rect x="957" y="128.4" class="st25" width="99.3" height="57"/>
<rect x="1188.4" y="83.6" class="st26" width="74.7" height="44.6"/>
<rect x="1568.6" y="128.4" class="st25" width="159.7" height="106.6"/>
<rect x="1437" y="457.1" class="st25" width="40.6" height="145"/>
<rect x="896" y="526.6" class="st25" width="61" height="22.6"/>
<rect x="1227.5" y="467" class="st25" width="47.1" height="55.1"/>
<circle class="st25" cx="1457.3" cy="417.1" r="25.3"/>
<circle class="st25" cx="1870.2" cy="479.7" r="36.2"/>
<circle class="st25" cx="1599.7" cy="90.9" r="31.1"/>
<circle class="st25" cx="1025.2" cy="223.6" r="31.1"/>
</svg>
