<?xml version="1.0" encoding="utf-8"?>
<!-- Generator: Adobe Illustrator 26.0.3, SVG Export Plug-In . SVG Version: 6.00 Build 0)  -->
<svg version="1.1" id="Слой_1" xmlns="http://www.w3.org/2000/svg" xmlns:xlink="http://www.w3.org/1999/xlink" x="0px" y="0px"
	 viewBox="0 0 1920 600.2" style="enable-background:new 0 0 1920 600.2;" xml:space="preserve">
<style type="text/css">
	.st0{fill:#14100F;}
	.st1{fill:#DC5B24;}
</style>
<rect class="st0" width="1920" height="600.2"/>
<rect x="1444.8" y="246.8" class="st1" width="134.8" height="329.9"/>
<rect x="1203.7" y="32.4" transform="matrix(-1 -1.224647e-16 1.224647e-16 -1 2542.2979 394.6251)" class="st1" width="134.8" height="329.9"/>
<g>
	<path class="st1" d="M1326.6,413.8c-2.5-1.9-5.1-3.7-7.8-5.4v154.8c2.7-1.7,5.3-3.4,7.8-5.4V413.8z"/>
	<path class="st1" d="M1233.8,402.9c-2.7,1.2-5.2,2.5-7.8,4v157.9c2.5,1.4,5.1,2.8,7.8,4V402.9z"/>
	<path class="st1" d="M1305.9,401.8c-2.5-1-5.1-2-7.8-2.8v173.6c2.6-0.8,5.2-1.8,7.8-2.8V401.8z"/>
	<path class="st1" d="M1316.2,406.9c-2.5-1.4-5.1-2.8-7.8-4v165.8c2.7-1.2,5.2-2.5,7.8-4V406.9z"/>
	<path class="st1" d="M1295.6,398.3c-2.5-0.7-5.1-1.3-7.8-1.8v178.7c2.6-0.5,5.2-1.1,7.8-1.8V398.3z"/>
	<path class="st1" d="M1277.6,576.5c2.6-0.2,5.2-0.5,7.8-0.9V396c-2.6-0.4-5.1-0.7-7.8-0.9V576.5z"/>
	<path class="st1" d="M1275,395c-1.3-0.1-2.6-0.1-3.9-0.1s-2.6,0-3.9,0.1v181.6c1.3,0.1,2.6,0.1,3.9,0.1s2.6,0,3.9-0.1V395z"/>
	<path class="st1" d="M1215.7,557.9c2.5,1.9,5.1,3.7,7.8,5.4V408.4c-2.7,1.7-5.3,3.4-7.8,5.4V557.9z"/>
	<path class="st1" d="M1264.7,395.2c-2.6,0.2-5.2,0.5-7.8,0.9v179.6c2.6,0.4,5.1,0.7,7.8,0.9V395.2z"/>
	<path class="st1" d="M1329.1,415.8v140c20.1-16.7,32.9-41.8,32.9-70S1349.2,432.5,1329.1,415.8z"/>
	<path class="st1" d="M1213.2,415.8c-20.1,16.7-32.9,41.8-32.9,70s12.8,53.3,32.9,70V415.8z"/>
	<path class="st1" d="M1244.1,399c-2.6,0.8-5.2,1.8-7.8,2.8v168c2.5,1,5.1,2,7.8,2.8V399z"/>
	<path class="st1" d="M1254.4,396.5c-2.6,0.5-5.2,1.1-7.8,1.8v175.1c2.5,0.7,5.1,1.3,7.8,1.8V396.5z"/>
</g>
<g>
	<path class="st1" d="M1440.1,67.9c-1.9,2.5-3.7,5.1-5.4,7.8h154.8c-1.7-2.7-3.4-5.3-5.4-7.8H1440.1z"/>
	<path class="st1" d="M1429.3,160.6c1.2,2.7,2.5,5.2,4,7.8h157.9c1.4-2.5,2.8-5.1,4-7.8H1429.3z"/>
	<path class="st1" d="M1428.2,88.5c-1,2.5-2,5.1-2.8,7.8H1599c-0.8-2.6-1.8-5.2-2.8-7.8H1428.2z"/>
	<path class="st1" d="M1433.2,78.2c-1.4,2.5-2.8,5.1-4,7.8h165.8c-1.2-2.7-2.5-5.2-4-7.8H1433.2z"/>
	<path class="st1" d="M1424.6,98.8c-0.7,2.5-1.3,5.1-1.8,7.8h178.7c-0.5-2.6-1.1-5.2-1.8-7.8H1424.6z"/>
	<path class="st1" d="M1602.8,116.8c-0.2-2.6-0.5-5.2-0.9-7.8h-179.6c-0.4,2.6-0.7,5.1-0.9,7.8H1602.8z"/>
	<path class="st1" d="M1421.4,119.4c-0.1,1.3-0.1,2.6-0.1,3.9s0,2.6,0.1,3.9H1603c0.1-1.3,0.1-2.6,0.1-3.9s0-2.6-0.1-3.9H1421.4z"/>
	<path class="st1" d="M1584.2,178.7c1.9-2.5,3.7-5.1,5.4-7.8h-154.8c1.7,2.7,3.4,5.3,5.4,7.8H1584.2z"/>
	<path class="st1" d="M1421.5,129.7c0.2,2.6,0.5,5.2,0.9,7.8H1602c0.4-2.6,0.7-5.1,0.9-7.8H1421.5z"/>
	<path class="st1" d="M1442.2,65.3h140c-16.7-20.1-41.8-32.9-70-32.9S1458.8,45.2,1442.2,65.3z"/>
	<path class="st1" d="M1442.2,181.2c16.7,20.1,41.8,32.9,70,32.9s53.3-12.8,70-32.9H1442.2z"/>
	<path class="st1" d="M1425.4,150.3c0.8,2.6,1.8,5.2,2.8,7.8h168c1-2.5,2-5.1,2.8-7.8H1425.4z"/>
	<path class="st1" d="M1422.8,140c0.5,2.6,1.1,5.2,1.8,7.8h175.1c0.7-2.5,1.3-5.1,1.8-7.8H1422.8z"/>
</g>
</svg>
