<?xml version="1.0" encoding="utf-8"?>
<!-- Generator: Adobe Illustrator 26.0.3, SVG Export Plug-In . SVG Version: 6.00 Build 0)  -->
<svg version="1.1" id="Слой_1" xmlns="http://www.w3.org/2000/svg" xmlns:xlink="http://www.w3.org/1999/xlink" x="0px" y="0px"
	 viewBox="0 0 1920 600.2" style="enable-background:new 0 0 1920 600.2;" xml:space="preserve">
<style type="text/css">
	.st0{fill:#14100F;}
	.st1{opacity:0.15;fill:none;stroke:#DC5B24;stroke-miterlimit:10;}
	.st2{opacity:0.15;fill:none;stroke:#DC5B24;stroke-width:3;stroke-miterlimit:10;}
	.st3{opacity:0.15;fill:#DC5B24;}
	.st4{opacity:0.11;}
	.st5{fill:#DC5B24;}
	.st6{font-family:'MyriadPro-Regular';}
	.st7{font-size:23.9443px;}
	.st8{font-size:15.151px;}
</style>
<rect class="st0" width="1920" height="600.2"/>
<rect x="1120" y="-242.4" class="st1" width="1088" height="484.8"/>
<rect x="1772.6" y="526.1" class="st1" width="468.4" height="228.9"/>
<rect x="857.7" y="135.4" class="st2" width="1088" height="484.8"/>
<rect x="857.7" y="135.4" class="st3" width="99.3" height="57"/>
<rect x="1830.4" y="242.4" class="st3" width="115.3" height="68.8"/>
<rect x="1120" y="90.9" class="st3" width="74.7" height="44.6"/>
<rect x="1772.6" y="526.1" class="st3" width="69.1" height="43.5"/>
<text transform="matrix(1 0 0 1 1106.9387 339.4867)" class="st4"><tspan x="0" y="0" class="st5 st6 st7"> &lt;head&gt;</tspan><tspan x="0" y="28.7" class="st5 st6 st7">      &lt;meta charset=&quot;utf-8&quot;&gt;</tspan><tspan x="0" y="57.5" class="st5 st6 st7">      &lt;title&gt;HTML Document&lt;/title&gt;</tspan><tspan x="0" y="86.2" class="st5 st6 st7">   &lt;/head&gt;</tspan></text>
<text transform="matrix(1 0 0 1 1096.3033 499.39)" class="st4"><tspan x="0" y="0" class="st5 st6 st8">&lt;body&gt;</tspan><tspan x="0" y="18.2" class="st5 st6 st8">      &lt;p style=&quot;font-size: 20px; color: green; font-family: arial, helvetica, sans-serif&quot;&gt;</tspan><tspan x="0" y="36.4" class="st5 st6 st8">         .....</tspan><tspan x="0" y="54.5" class="st5 st6 st8">      &lt;/p&gt;</tspan><tspan x="0" y="72.7" class="st5 st6 st8">   &lt;/body&gt;</tspan></text>
</svg>
